# xmcd
#
# Track frame offsets:
#	182
#	11405
#	23930
#	40052
#	53782
#	74627
#	91657
#	105677
#	118952
#	133957
#	147905
#	162080
#	179255
#	193655
#	205202
#	219080
#	237680
#	252380
#	270305
#	286877
#	302030
#
# Disc length: 4154 seconds
#
# Revision: 1
# Processed by: cddbd v1.5.2PL0 Copyright (c) Steve Scherf et al.
# Submitted via: audiograbber 1.83.01
#
DISCID=35103815
DTITLE=Various Artist - Farm Safe Volume 9 [Disc 2]
DYEAR=1998
DGENRE=Country
TTITLE0=Slim Dusty - Yellow Old Bullcatcher
TTITLE1=Troy Cassar-Daley - You Can't Take The Country Out Of The Boy
TTITLE2=George Fox - Clearly Canadian
TTITLE3=Colin Buchanan - Adelago
TTITLE4=Lyn Bowtell - Seaching For Jane
TTITLE5=Brian Young - Reading This Letter
TTITLE6=Anthony Taylor - Better Man
TTITLE7=Carol Young - True Blue Fool
TTITLE8=Craig Giles - Country State Of Mind
TTITLE9=Leah Cotterell - Lights On The Hill
TTITLE10=Andrew Clermont - Letters From Home (Dear Daddy)
TTITLE11=Grant Luhrs - This Bad
TTITLE12=Midnight Travellers - Angel
TTITLE13=Treacle Line - Bile 'Em Cabbage Down
TTITLE14=Barbara Thompson - Blue Moon Of Kentucky
TTITLE15=Marcus Holden - Trade Winds
TTITLE16=Roo Arcus - South Freight Special
TTITLE17=The Woodys - Habits Of The Heart
TTITLE18=Greg Champion - Cooee Motel
TTITLE19=Anne Kirkpatrick - I Still Miss Someone
TTITLE20=Trev and Kym Warner - High Rollin'
EXTD=
EXTT0=
EXTT1=
EXTT2=
EXTT3=
EXTT4=
EXTT5=
EXTT6=
EXTT7=
EXTT8=
EXTT9=
EXTT10=
EXTT11=
EXTT12=
EXTT13=
EXTT14=
EXTT15=
EXTT16=
EXTT17=
EXTT18=
EXTT19=
EXTT20=
PLAYORDER=
